<svg xmlns="http://www.w3.org/2000/svg" xmlns:xlink="http://www.w3.org/1999/xlink" width="2000" zoomAndPan="magnify" viewBox="0 0 1500 1499.999933" height="2000" preserveAspectRatio="xMidYMid meet" version="1.0"><defs><clipPath id="aec56b8535"><path d="M 7 37.5 L 1493 37.5 L 1493 1458 L 7 1458 Z M 7 37.5 " clip-rule="nonzero"/></clipPath></defs><g clip-path="url(#aec56b8535)"><path fill="#fbca41" d="M 1468.675781 655.136719 L 1166.570312 949.582031 L 1237.851562 1365.320312 C 1242.988281 1394.960938 1230.75 1424.871094 1206.457031 1442.511719 C 1192.734375 1452.519531 1176.402344 1457.570312 1160.097656 1457.570312 C 1147.472656 1457.570312 1134.941406 1454.570312 1123.355469 1448.511719 L 749.96875 1252.226562 L 376.644531 1448.511719 C 350.003906 1462.558594 317.808594 1460.183594 293.453125 1442.511719 C 269.160156 1424.839844 257.011719 1394.960938 262.0625 1365.320312 L 333.429688 949.582031 L 31.324219 655.136719 C 9.789062 634.171875 2.066406 602.777344 11.363281 574.234375 C 20.660156 545.695312 45.339844 524.875 75.070312 520.539062 L 492.53125 459.890625 L 679.195312 81.605469 C 692.441406 54.636719 719.882812 37.617188 749.941406 37.617188 C 779.996094 37.617188 807.441406 54.636719 820.746094 81.605469 L 1007.410156 459.890625 L 1424.871094 520.539062 C 1454.601562 524.875 1479.28125 545.695312 1488.578125 574.234375 C 1497.871094 602.777344 1490.0625 634.171875 1468.617188 655.136719 Z M 1468.675781 655.136719 " fill-opacity="1" fill-rule="nonzero"/></g></svg>